%TF.GenerationSoftware,KiCad,Pcbnew,8.0.4*%
%TF.CreationDate,2024-09-24T22:01:12+02:00*%
%TF.ProjectId,blinker_v1_0,626c696e-6b65-4725-9f76-315f302e6b69,rev?*%
%TF.SameCoordinates,Original*%
%TF.FileFunction,Copper,L1,Top*%
%TF.FilePolarity,Positive*%
%FSLAX46Y46*%
G04 Gerber Fmt 4.6, Leading zero omitted, Abs format (unit mm)*
G04 Created by KiCad (PCBNEW 8.0.4) date 2024-09-24 22:01:12*
%MOMM*%
%LPD*%
G01*
G04 APERTURE LIST*
G04 Aperture macros list*
%AMRoundRect*
0 Rectangle with rounded corners*
0 $1 Rounding radius*
0 $2 $3 $4 $5 $6 $7 $8 $9 X,Y pos of 4 corners*
0 Add a 4 corners polygon primitive as box body*
4,1,4,$2,$3,$4,$5,$6,$7,$8,$9,$2,$3,0*
0 Add four circle primitives for the rounded corners*
1,1,$1+$1,$2,$3*
1,1,$1+$1,$4,$5*
1,1,$1+$1,$6,$7*
1,1,$1+$1,$8,$9*
0 Add four rect primitives between the rounded corners*
20,1,$1+$1,$2,$3,$4,$5,0*
20,1,$1+$1,$4,$5,$6,$7,0*
20,1,$1+$1,$6,$7,$8,$9,0*
20,1,$1+$1,$8,$9,$2,$3,0*%
G04 Aperture macros list end*
%TA.AperFunction,SMDPad,CuDef*%
%ADD10RoundRect,0.150000X-0.825000X-0.150000X0.825000X-0.150000X0.825000X0.150000X-0.825000X0.150000X0*%
%TD*%
%TA.AperFunction,SMDPad,CuDef*%
%ADD11RoundRect,0.200000X-0.200000X-0.275000X0.200000X-0.275000X0.200000X0.275000X-0.200000X0.275000X0*%
%TD*%
%TA.AperFunction,SMDPad,CuDef*%
%ADD12RoundRect,0.243750X-0.456250X0.243750X-0.456250X-0.243750X0.456250X-0.243750X0.456250X0.243750X0*%
%TD*%
%TA.AperFunction,Conductor*%
%ADD13C,0.200000*%
%TD*%
G04 APERTURE END LIST*
D10*
%TO.P,U1,1,GND*%
%TO.N,unconnected-(U1-GND-Pad1)*%
X103525000Y-57095000D03*
%TO.P,U1,2,TR*%
%TO.N,Net-(D1-K)*%
X103525000Y-58365000D03*
%TO.P,U1,3,Q*%
%TO.N,unconnected-(U1-Q-Pad3)*%
X103525000Y-59635000D03*
%TO.P,U1,4,R*%
%TO.N,unconnected-(U1-R-Pad4)*%
X103525000Y-60905000D03*
%TO.P,U1,5,CV*%
%TO.N,Net-(U1-CV)*%
X108475000Y-60905000D03*
%TO.P,U1,6,THR*%
%TO.N,unconnected-(U1-THR-Pad6)*%
X108475000Y-59635000D03*
%TO.P,U1,7,DIS*%
%TO.N,unconnected-(U1-DIS-Pad7)*%
X108475000Y-58365000D03*
%TO.P,U1,8,VCC*%
%TO.N,unconnected-(U1-VCC-Pad8)*%
X108475000Y-57095000D03*
%TD*%
D11*
%TO.P,R2,1*%
%TO.N,Net-(D1-K)*%
X105487500Y-68245000D03*
%TO.P,R2,2*%
%TO.N,Net-(U1-CV)*%
X107137500Y-68245000D03*
%TD*%
%TO.P,R1,1*%
%TO.N,Net-(D1-A)*%
X105487500Y-65735000D03*
%TO.P,R1,2*%
%TO.N,Net-(D1-K)*%
X107137500Y-65735000D03*
%TD*%
D12*
%TO.P,D1,1,K*%
%TO.N,Net-(D1-K)*%
X116500000Y-56625000D03*
%TO.P,D1,2,A*%
%TO.N,Net-(D1-A)*%
X116500000Y-58500000D03*
%TD*%
D13*
%TO.N,Net-(U1-CV)*%
X111000000Y-66000000D02*
X111000000Y-63430000D01*
X111000000Y-63430000D02*
X108475000Y-60905000D01*
X108755000Y-68245000D02*
X111000000Y-66000000D01*
X107137500Y-68245000D02*
X108755000Y-68245000D01*
%TO.N,Net-(D1-K)*%
X100500000Y-53000000D02*
X112875000Y-53000000D01*
X100000000Y-53500000D02*
X100500000Y-53000000D01*
X100000000Y-57000000D02*
X100000000Y-53500000D01*
X101365000Y-58365000D02*
X100000000Y-57000000D01*
X112875000Y-53000000D02*
X116500000Y-56625000D01*
X103525000Y-58365000D02*
X101365000Y-58365000D01*
X104500000Y-58365000D02*
X103525000Y-58365000D01*
X105067500Y-58932500D02*
X104500000Y-58365000D01*
X106000000Y-59865001D02*
X105067500Y-58932500D01*
X106000000Y-62000000D02*
X106000000Y-59865001D01*
X107137500Y-63137500D02*
X106000000Y-62000000D01*
X107137500Y-65735000D02*
X107137500Y-63137500D01*
%TO.N,Net-(D1-A)*%
X101000000Y-64500000D02*
X102000000Y-64500000D01*
X102000000Y-64500000D02*
X103235000Y-65735000D01*
X99500000Y-66000000D02*
X101000000Y-64500000D01*
X101000000Y-71500000D02*
X99500000Y-70000000D01*
X99500000Y-70000000D02*
X99500000Y-66000000D01*
X110500000Y-71500000D02*
X101000000Y-71500000D01*
X115000000Y-67000000D02*
X110500000Y-71500000D01*
X103235000Y-65735000D02*
X105487500Y-65735000D01*
X115000000Y-60000000D02*
X115000000Y-67000000D01*
X116500000Y-58500000D02*
X115000000Y-60000000D01*
%TD*%
M02*
