%TF.GenerationSoftware,KiCad,Pcbnew,8.0.4*%
%TF.CreationDate,2024-09-24T22:01:12+02:00*%
%TF.ProjectId,blinker_v1_0,626c696e-6b65-4725-9f76-315f302e6b69,rev?*%
%TF.SameCoordinates,Original*%
%TF.FileFunction,Legend,Top*%
%TF.FilePolarity,Positive*%
%FSLAX46Y46*%
G04 Gerber Fmt 4.6, Leading zero omitted, Abs format (unit mm)*
G04 Created by KiCad (PCBNEW 8.0.4) date 2024-09-24 22:01:12*
%MOMM*%
%LPD*%
G01*
G04 APERTURE LIST*
%ADD10C,0.150000*%
%ADD11C,0.120000*%
G04 APERTURE END LIST*
D10*
X105238095Y-55054819D02*
X105238095Y-55864342D01*
X105238095Y-55864342D02*
X105285714Y-55959580D01*
X105285714Y-55959580D02*
X105333333Y-56007200D01*
X105333333Y-56007200D02*
X105428571Y-56054819D01*
X105428571Y-56054819D02*
X105619047Y-56054819D01*
X105619047Y-56054819D02*
X105714285Y-56007200D01*
X105714285Y-56007200D02*
X105761904Y-55959580D01*
X105761904Y-55959580D02*
X105809523Y-55864342D01*
X105809523Y-55864342D02*
X105809523Y-55054819D01*
X106809523Y-56054819D02*
X106238095Y-56054819D01*
X106523809Y-56054819D02*
X106523809Y-55054819D01*
X106523809Y-55054819D02*
X106428571Y-55197676D01*
X106428571Y-55197676D02*
X106333333Y-55292914D01*
X106333333Y-55292914D02*
X106238095Y-55340533D01*
X106145833Y-67269819D02*
X105812500Y-66793628D01*
X105574405Y-67269819D02*
X105574405Y-66269819D01*
X105574405Y-66269819D02*
X105955357Y-66269819D01*
X105955357Y-66269819D02*
X106050595Y-66317438D01*
X106050595Y-66317438D02*
X106098214Y-66365057D01*
X106098214Y-66365057D02*
X106145833Y-66460295D01*
X106145833Y-66460295D02*
X106145833Y-66603152D01*
X106145833Y-66603152D02*
X106098214Y-66698390D01*
X106098214Y-66698390D02*
X106050595Y-66746009D01*
X106050595Y-66746009D02*
X105955357Y-66793628D01*
X105955357Y-66793628D02*
X105574405Y-66793628D01*
X106526786Y-66365057D02*
X106574405Y-66317438D01*
X106574405Y-66317438D02*
X106669643Y-66269819D01*
X106669643Y-66269819D02*
X106907738Y-66269819D01*
X106907738Y-66269819D02*
X107002976Y-66317438D01*
X107002976Y-66317438D02*
X107050595Y-66365057D01*
X107050595Y-66365057D02*
X107098214Y-66460295D01*
X107098214Y-66460295D02*
X107098214Y-66555533D01*
X107098214Y-66555533D02*
X107050595Y-66698390D01*
X107050595Y-66698390D02*
X106479167Y-67269819D01*
X106479167Y-67269819D02*
X107098214Y-67269819D01*
X106145833Y-64759819D02*
X105812500Y-64283628D01*
X105574405Y-64759819D02*
X105574405Y-63759819D01*
X105574405Y-63759819D02*
X105955357Y-63759819D01*
X105955357Y-63759819D02*
X106050595Y-63807438D01*
X106050595Y-63807438D02*
X106098214Y-63855057D01*
X106098214Y-63855057D02*
X106145833Y-63950295D01*
X106145833Y-63950295D02*
X106145833Y-64093152D01*
X106145833Y-64093152D02*
X106098214Y-64188390D01*
X106098214Y-64188390D02*
X106050595Y-64236009D01*
X106050595Y-64236009D02*
X105955357Y-64283628D01*
X105955357Y-64283628D02*
X105574405Y-64283628D01*
X107098214Y-64759819D02*
X106526786Y-64759819D01*
X106812500Y-64759819D02*
X106812500Y-63759819D01*
X106812500Y-63759819D02*
X106717262Y-63902676D01*
X106717262Y-63902676D02*
X106622024Y-63997914D01*
X106622024Y-63997914D02*
X106526786Y-64045533D01*
X118604819Y-58300594D02*
X117604819Y-58300594D01*
X117604819Y-58300594D02*
X117604819Y-58062499D01*
X117604819Y-58062499D02*
X117652438Y-57919642D01*
X117652438Y-57919642D02*
X117747676Y-57824404D01*
X117747676Y-57824404D02*
X117842914Y-57776785D01*
X117842914Y-57776785D02*
X118033390Y-57729166D01*
X118033390Y-57729166D02*
X118176247Y-57729166D01*
X118176247Y-57729166D02*
X118366723Y-57776785D01*
X118366723Y-57776785D02*
X118461961Y-57824404D01*
X118461961Y-57824404D02*
X118557200Y-57919642D01*
X118557200Y-57919642D02*
X118604819Y-58062499D01*
X118604819Y-58062499D02*
X118604819Y-58300594D01*
X118604819Y-56776785D02*
X118604819Y-57348213D01*
X118604819Y-57062499D02*
X117604819Y-57062499D01*
X117604819Y-57062499D02*
X117747676Y-57157737D01*
X117747676Y-57157737D02*
X117842914Y-57252975D01*
X117842914Y-57252975D02*
X117890533Y-57348213D01*
D11*
%TO.C,U1*%
X106000000Y-56440000D02*
X104050000Y-56440000D01*
X106000000Y-56440000D02*
X107950000Y-56440000D01*
X106000000Y-61560000D02*
X104050000Y-61560000D01*
X106000000Y-61560000D02*
X107950000Y-61560000D01*
X103300000Y-56535000D02*
X103060000Y-56205000D01*
X103540000Y-56205000D01*
X103300000Y-56535000D01*
G36*
X103300000Y-56535000D02*
G01*
X103060000Y-56205000D01*
X103540000Y-56205000D01*
X103300000Y-56535000D01*
G37*
%TO.C,R2*%
X106075242Y-67722500D02*
X106549758Y-67722500D01*
X106075242Y-68767500D02*
X106549758Y-68767500D01*
%TO.C,R1*%
X106075242Y-65212500D02*
X106549758Y-65212500D01*
X106075242Y-66257500D02*
X106549758Y-66257500D01*
%TO.C,D1*%
X117460000Y-55877500D02*
X115540000Y-55877500D01*
X115540000Y-55877500D02*
X115540000Y-58562500D01*
X117460000Y-58562500D02*
X117460000Y-55877500D01*
%TD*%
M02*
